<svg xmlns="http://www.w3.org/2000/svg" width="400" height="262" viewBox="0 0 400 262"><defs><radialGradient id="glow" cx="50%" cy="50%" r="50%"><stop offset="0%" stop-color="rgba(148,118,255,0.20)"/><stop offset="60%" stop-color="rgba(148,118,255,0.07)"/><stop offset="100%" stop-color="rgba(148,118,255,0)"/></radialGradient><linearGradient id="lg" gradientUnits="userSpaceOnUse" x1="168" y1="96" x2="236" y2="168"><stop offset="0%" stop-color="#6d4bf0"/><stop offset="55%" stop-color="#9d7bff"/><stop offset="100%" stop-color="#d8ccff"/></linearGradient></defs><circle cx="200" cy="131" r="120" fill="url(#glow)"/><circle cx="200" cy="131" r="78" fill="none" stroke="rgba(255,255,255,0.045)" stroke-width="1"/><circle cx="200" cy="131" r="52" fill="none" stroke="rgba(255,255,255,0.05)" stroke-width="1"/><g transform="translate(200 131) scale(2.9) translate(-12 -11.4)" fill="none" stroke="url(#lg)" stroke-width="2.1" stroke-linecap="round" stroke-linejoin="round"><path d="M15 14c.2-1 .7-1.7 1.5-2.5 1-.9 1.5-2.2 1.5-3.5A6 6 0 0 0 6 8c0 1 .2 2.2 1.5 3.5.7.7 1.3 1.5 1.5 2.5"/><path d="M9 18h6"/><path d="M10 22h4"/></g></svg>