<?xml version="1.0" encoding="UTF-8"?>
<svg id="Ebene_2" xmlns="http://www.w3.org/2000/svg" xmlns:xlink="http://www.w3.org/1999/xlink" version="1.1" viewBox="0 0 332.7 108.1">
  <!-- Generator: Adobe Illustrator 30.2.1, SVG Export Plug-In . SVG Version: 2.1.1 Build 1)  -->
  <defs>
    <style>
      .st0 {
        fill: url(#Unbenannter_Verlauf);
      }

      .st1 {
        fill: url(#Unbenannter_Verlauf_2);
      }

      .st2 {
        fill: url(#Unbenannter_Verlauf_3);
      }
    </style>
    <linearGradient id="Unbenannter_Verlauf" data-name="Unbenannter Verlauf" x1="282.9" y1="-661.2" x2="271.7" y2="-674.3" gradientTransform="translate(0 -624.6) scale(1 -1)" gradientUnits="userSpaceOnUse">
      <stop offset="0" stop-color="#fff"/>
      <stop offset="0" stop-color="#000"/>
      <stop offset=".5" stop-color="#c45d7c"/>
      <stop offset=".6" stop-color="#b93e63"/>
      <stop offset=".8" stop-color="#b12851"/>
      <stop offset=".9" stop-color="#ac1a46"/>
      <stop offset="1" stop-color="#ab1643"/>
    </linearGradient>
    <linearGradient id="Unbenannter_Verlauf_2" data-name="Unbenannter Verlauf 2" x1="197.8" y1="-759.5" x2="209.1" y2="-599.3" gradientTransform="translate(0 -624.6) scale(1 -1)" gradientUnits="userSpaceOnUse">
      <stop offset="0" stop-color="#000"/>
      <stop offset=".5" stop-color="#ab1643"/>
      <stop offset="1" stop-color="#000"/>
    </linearGradient>
    <linearGradient id="Unbenannter_Verlauf_3" data-name="Unbenannter Verlauf 3" x1="32.5" y1="-755.8" x2="50.6" y2="-605.8" gradientTransform="translate(0 -624.6) scale(1 -1)" gradientUnits="userSpaceOnUse">
      <stop offset="0" stop-color="#000"/>
      <stop offset=".5" stop-color="#ab1643"/>
      <stop offset="1" stop-color="#000"/>
    </linearGradient>
  </defs>
  <g id="Ebene_1-2">
    <g>
      <path class="st0" d="M272.3,44.6l-1.3,1c-.5.4-1.5.2-2-.2-2.6-2.5,5.3-7.6,12.5-5.6,1.8.5,3.7,1.4,4.2,3.3-2.8-1-5.3-1.4-8-.7-1.9.5-3.8,1-5.4,2.2h0Z"/>
      <g>
        <path class="st1" d="M332.7,72.3c-5.8,4.7-19.5,10.8-26.8,6.9-2.4-1.3-3.5-3.8-2.9-6.5.5-2.1,1.6-3.9,2.9-5.8l-3.2-.3c-1.2,0-2.3-.8-3.3-1.4-6.8,5.5-21.5,13.8-30.2,12.1-3.1-.6-5-2.9-4.9-6,.1-2.7,1.3-4.9,2.6-7.4l-10.3,5.5c-2.6,1.4-5.4,2.4-8.2,3.4-3.5,1.2-7.1,1.5-10.8,1-6.7-1-7.2-4.9-12.7-4.1-7.9,1-14.9,3.7-23,1.5-2.1-.6-4-1.5-5.7-2.8-3.8,2.2-7.6,4-11.8,5.2-6.9,1.9-15.8,2.1-21.2-3.2-7.9,4.8-17.1,8.6-26.4,9-6.7,0-13.1-1.5-17.4-6.6-11,4.8-26.4,11.3-38.2,8.7-2.6-.6-5-1.6-6.9-3.4-4.5-4.4-2.3-10.3,1.4-14.5,3.8-4.3,8.8-7.3,14.4-8.8,3.1-.8,7.5-1.1,10.2.9,1.3,1,1.8,2.6,1.2,4.1-2.4,6.1-15.3,10.6-21.5,11.5-.7,1.7-.2,3.6,1.2,4.8,6.9,5.9,28.8-1.7,36.8-5.1-3.5-5.7-4.1-12.3-2.9-18.8,3.2-15.4,14.3-30.7,26.5-40.3,6.5-5.1,13.8-8.9,21.8-10.9,3.5-.9,6.8-1.2,10.3-.9,7.2.6,13.2,4.8,13.3,12.6.1,8.8-6.6,18-12.4,24.3-13.1,14.2-32.3,25.6-49.9,33.4,2.6,3.8,7.1,5.1,11.5,5.4,8.5,0,17.7-3.4,25-7.6-1.7-3-1.7-6.3-.1-9.3,1.7-3.3,4.7-5.6,8.3-6.5,1.9-.4,3.8-.4,5.5.5,1.9.9,2.6,3,1.7,4.9-1.8,4.2-6.2,7.5-9.7,10.2,1.2,1.7,3,2.7,5,3.3,7.2,2.2,16.4-.8,22.6-4.6-2.4-3.1-1.9-7.1,1.1-9.4,1.9-1.5,4.2-2.2,6.5-1.6,1.9.6,2.9,2.5,2.1,4.3-.5,1.2-1.3,2.4-2.3,3.4l-3,2.9c4.9,3.8,13.7,2.4,19.3,1.2s10.4-2.6,15.4.9c5.7,3.9,11.9,2.7,17.9.2,3.6-1.5,7-3.3,10.5-5.1l8.9-4.7c.8-.4,1.9,0,2.3.5.7.7.6,1.7.2,2.5-1.6,2.9-3.7,6.3-4.3,9.5-.2,1.2.4,2.2,1.6,2.5,6.8,1.7,21.6-6,27.5-9.9-1.7-3.2,3.2-9.2,5.1-7.5,1.7,1.4-1.2,5.2-2,6.8,2.1,2.4,9.5-1.1,10.6,2.5.2.6,0,1.5-.4,2.1-1.2,1.9-4.6,7-2.6,8.8,1.1.9,2.6,1,4,1.1,3.3-.2,6.4-.8,9.5-1.8l10-3.7h.3q0,0,0,.1ZM176.1,30.1c3.7-5.1,8-12.5,7.3-18.9-.4-3.3-2.5-5.8-5.7-6.7-5.9-1.6-13.5,1.4-18.7,4.3-6.9,3.8-12.8,8.7-18.2,14.4-6.1,6.3-11.1,13.4-14.8,21.4-3.3,7.1-5.9,16.6-2.3,24,18-8.3,40.6-22.5,52.4-38.4h0s0-.1,0,0ZM173.8,55.9c-.3-1.6-4.5-.4-6.9,3.6-1.1,1.7-1.7,3.7-1.1,5.7,2.4-1.6,8.5-6.6,8-9.3h0ZM97.8,59.7c0-.5.2-1.1,0-1.4-.4-1.2-3.8-.3-4.8.2-5,2.3-9.4,6-12.3,10.8,5-1.4,14.3-5.5,17-9.6h.1ZM202.2,58.2c-1-1.1-3.9.4-4.8,2.7-.5,1.2-.4,2.5.4,3.6,1.2-.8,5.7-4.9,4.5-6.3h-.1,0Z"/>
        <path class="st2" d="M52.5,98.4c-12.5,7.5-27.9,11.6-41.1,8.7-3.3-.7-8.4-2.5-10.6-6.9-1.7-3.4-.5-7.3,1.3-9.6,2-2.6,4.4-4.2,7-4.5-2.1,1.9-4.6,3.7-5.9,7.5-.5,1.4-.2,3.2.6,4.1,4.8,5.3,19.7,2.8,25.5,1.3,5.1-1.3,10-3,14.9-5.4,5.7-2.7,17.7-10,21.1-18.4,1.7-4.2-2.4-7.5-4.1-8.7-6.2-4.3-15.2-7.1-21.9-9.1l-14-4.2c-3.4-1-6.6-2.4-9.8-4.4-1.9-1.2-3.6-2.8-5.1-5.1-1.9-2.9-2.2-7.1-.8-10.8,2.6-6.7,8.9-11.9,13.2-15,8.6-6.2,17.6-10.3,26.8-13.1,6.3-1.9,12.5-2.9,18.8-2.2,4.2.5,10.5,2.2,13.4,7.7,1.5,2.8,1.6,6.4.4,9.4-2.6,6.5-9.3,10.9-13.9,11.1,2.2-3.2,15-13.1,8.8-19.7-3.7-3.9-10.4-4.3-14.7-3.8-13.1,1.5-27.8,10-39.2,20.7-2.1,2-4,4-5.8,6.6-.7,1-1.4,2.3-1.5,3.8-.3,3.5,4.1,6.1,5.6,6.9,3.4,1.9,6.6,3.2,10.1,4.4l18.2,6.4c3.8,1.3,7.4,2.8,11.1,4.7,2.1,1,4,2.3,6,3.9,2.7,2.2,6.4,6.3,4.9,12.4-2.5,9.9-13.8,17.7-19.4,21.1h0s0,.2,0,.2Z"/>
      </g>
    </g>
    <g>
      <path d="M112.2,101.9c-.5,0-.9,0-1.5,0-.5,0-1-.2-1.4-.4,0,0-.2-.2-.2-.2v-2.5c0-.2,0-.3.2-.3s.2,0,.2.2v.7c0,.3.2.6.4.9.2.2.5.4.8.6s.6.3.9.3h1c1,0,1.7-.2,2.2-.7s.7-1.1.7-1.8,0-.7,0-.9c0-.3-.2-.5-.4-.8l-.8-.8c-.3-.3-.7-.5-1.1-.9l-.9-.7c-1.1-.8-1.8-1.5-2.2-2.1-.4-.6-.6-1.3-.6-1.9s0-1.1.3-1.5.5-.8.9-1.1.8-.5,1.4-.7c.5-.2,1.1-.2,1.8-.2h1.1c.3,0,.7,0,.9.2h.7c0,0,.2,0,.2,0v2.1c0,.7,0,.4-.2.4s0,0,0,0v-.2c0,0,0-.3,0-.5s0-.3-.2-.5c0,0,0,0-.2-.2s-.3-.2-.5-.3-.4-.2-.8-.3-.7,0-1.1,0c-.7,0-1.3.2-1.8.5s-.8.9-.8,1.5,0,.6,0,.8c0,.2.2.5.4.8s.5.5.8.8.7.6,1.2.9l.6.4c.6.4,1.1.8,1.5,1.2s.7.8,1,1.1.4.7.6,1.1c0,.4.2.8.2,1.2,0,.6,0,1.1-.4,1.7s-.7,1.1-1.4,1.5c-.4.3-.9.4-1.5.5-.6,0-1.1,0-1.7,0h0s0,0,0,.1Z"/>
      <path d="M121.7,95.6v-6.9c0-.3,0-.5-.2-.7,0-.2-.3-.3-.6-.3h-.6s-.2,0-.2-.2,0-.2.3-.2h4.2c.2,0,.3,0,.3.2s0,.2-.2.2h-.5c-.2,0-.4.2-.5.3s0,.4-.2.7v6.8c0,.7,0,1.3,0,1.8s.2.9.3,1.3.3.7.5.9.4.5.6.7c.5.4.9.7,1.4.8.4,0,1,.2,1.5.2s1.2,0,1.7-.4c.5-.2,1-.6,1.3-1,.5-.6.8-1.2.9-2s.2-1.7.2-2.6v-6.5c0-.3,0-.5-.2-.7s-.3-.3-.6-.3h-.7c-.1,0-.2,0-.2-.2s.1-.2.3-.2h3.9c.2,0,.3,0,.3.2s0,.2-.2.2h-.5c-.3,0-.4.2-.5.3,0,.2-.1.4-.2.7v7.7c0,.5-.1,1-.3,1.5-.1.5-.3,1-.6,1.4-.2.4-.6.8-.9,1.2-.4.3-.7.6-1.1.7s-.7.3-1.1.4c-.4,0-.7.2-1,.2h-1.6c-.3,0-.7,0-1.1-.2-.4,0-.8-.2-1.2-.4s-.8-.4-1.1-.8c-.2-.2-.5-.5-.7-.8s-.4-.6-.6-1-.3-.8-.4-1.4c0-.5,0-1.1,0-1.8h0v.2q0,0,0,0Z"/>
      <path d="M140.8,92.8v6.4c0,.3,0,.6.1.8,0,.2.1.3.2.4.2.2.4.3.9.3h3.2c.4,0,.7-.2,1-.5.1-.2.2-.3.3-.5s.1-.4.2-.6c0-.2.1-.2.2-.2s.1,0,.1.3v1.4c0,.2,0,.4-.1.5,0,0,0,.2-.1.3s-.1,0-.2.2h-8.5c-.1,0-.3,0-.3-.2s0-.2.2-.2h.6c.2,0,.3-.2.4-.3,0-.2.1-.4.1-.7s0-.9.1-1.7v-10c0-.3,0-.6-.2-.7,0-.2-.3-.3-.6-.3h-.7c-.1,0-.2,0-.2-.2s.1-.2.3-.2h4.5c.2,0,.3,0,.3.2s0,0-.2,0h-.7c-.3,0-.5.2-.6.3s-.1.4-.2.8v4.1h0v.2q-.1,0-.1,0Z"/>
      <path d="M152.8,92.8v8.1c0,.4-.1.8-.2,1.2s-.2.7-.4,1c-.2.5-.5.9-1,1.4s-1.1,1-1.9,1.5c-.1,0-.3.2-.4.3-.1,0-.3.2-.4.2h0s0-.2.2-.3c.1,0,.2-.2.4-.3.1,0,.2-.2.3-.3.3-.3.6-.6.8-1s.4-.8.6-1.2c.2-.5.3-1.2.4-1.9,0-.8.1-1.8.1-3v-9.6c0-.3,0-.6-.2-.7,0-.2-.3-.3-.6-.3h-.7c-.1,0-.2,0-.2-.2s.1-.2.3-.2h4.1c.1,0,.3,0,.3.2s0,.2-.2.2h-.5c-.3,0-.4.2-.5.3,0,.2-.1.4-.2.7v4.1h0v-.2q-.1,0-.1,0Z"/>
      <path d="M159.2,96.2v-7.5c0-.3,0-.6-.2-.7,0-.2-.3-.3-.6-.3h-.7c-.1,0-.2,0-.2-.2s.1-.2.3-.2h4.2c.1,0,.3,0,.3.2s0,.2-.2.2h-.5c-.2,0-.4.2-.5.3,0,.2-.1.4-.2.7v5.3h0s.2-.2.4-.4l.8-.8,1-1,1-1c.3-.3.6-.6.9-.9s.4-.4.6-.6l.8-.8c.2-.2.3-.4.3-.6s0-.3-.2-.4c-.1,0-.2,0-.2-.2s0,0,.2,0h3.4c.2,0,.3,0,.3,0s0,.2-.2.2h-.5c-.2,0-.4,0-.6.2-.4.2-.7.4-1,.6s-.6.6-1.1,1c0,0-.2.2-.5.4-.2.2-.5.5-.8.7s-.6.6-.9.9-.6.6-.9.9l-.8.8-.4.4.5.5c.3.3.6.6.9.9s.7.7,1.1,1.2.8.8,1.2,1.2c.4.4.7.7,1,1s.5.5.6.6c.4.4.8.7,1,.9.2.2.5.4.7.6s.4.3.5.4.4.2.6.3c.2,0,.5.2.7.2h.5c.1,0,.2,0,.2.2,0,.2,0,0,0,0s-.2,0-.3,0h-2.3c-.2,0-.5,0-.7,0s-.4-.2-.6-.2-.4-.2-.6-.3-.4-.3-.6-.4c-.1,0-.4-.3-.7-.6s-.7-.6-1.1-1c-.4-.4-.8-.8-1.2-1.3-.4-.4-.8-.9-1.2-1.3s-.7-.8-1.1-1.1-.6-.6-.7-.8h0v6c0,.3,0,.5.2.7s.3.3.6.3h.8c.1,0,.2,0,.2.2s-.1.2-.3.2h-4.2c-.1,0-.3,0-.3-.2s0-.2.2-.2h.6c.2,0,.3-.2.4-.3,0-.2.1-.4.1-.7s0-.9.1-1.7v-2.5h-.1Z"/>
      <path d="M172.4,99.6l4.6-11.9c.1-.3.2-.5.3-.6s.1,0,.2,0,.2,0,.2.2.1.3.2.5c0,0,.2.4.4.9s.4,1.1.7,1.8c.3.7.6,1.4.9,2.3s.7,1.6,1,2.4.6,1.6.9,2.3.5,1.3.7,1.8c.2.4.4.8.5,1,.2.2.3.5.4.6.1.2.3.2.4.3s.2,0,.3,0h1c.1,0,0,0,0,0s0,0-.1,0h-4,.1s.1,0,.2-.2v-.4l-1.8-4.4s-.1,0-.2,0h-4.5s-.2,0-.2.2l-1.1,3c-.2.5-.3.9-.3,1.3s0,.3.2.4.3,0,.5,0h.2c.1,0,.2,0,.2.2s-.1.2-.3.2h-3.7c-.2,0-.4,0-.4-.2s0-.2.2-.2h.6c.4,0,.8-.2,1-.6.2-.3.4-.7.6-1.2h.1q0,0,0,0ZM175.2,95.6h4c0,0-1.9-5.3-1.9-5.3-.1-.3-.2-.3-.3,0l-1.8,5.2h0Z"/>
      <path d="M188.5,90.1l.2,9v1c0,.3,0,.5.1.7s.1.3.2.4c0,0,.2,0,.3.2h1c.1,0,.2,0,.2.2s-.1.2-.4.2h-4c-.4,0-.3,0-.3-.2s0-.2.2-.2h.9c.1,0,.2,0,.3-.2,0,0,.1-.2.2-.4s0-.4,0-.7v-12.8c0-.2.1-.2.2-.2s.2,0,.4.2.3.3.4.4l.7.7c.4.4.8.9,1.4,1.5s1.2,1.3,1.9,2c.7.8,1.4,1.5,2.2,2.3l1.5,1.5c.5.5.9,1,1.4,1.4.4.4.8.8,1.1,1.2.3.3.6.6.7.7l-.2-9.5c0-.6,0-1-.2-1.3,0-.2-.3-.4-.6-.5h-1.1c0,0,.1-.2.4-.2h3.8c.5,0,.4,0,.4,0h0c0,.2,0,0-.2,0h-.5c-.2,0-.3,0-.4.2,0,0-.2.2-.2.3v13.6h-.2c0,0-.2,0-.3-.2-.1,0-.2-.2-.4-.3s-.4-.3-.7-.6c0,0-.2-.2-.6-.6-.4-.3-.8-.8-1.3-1.2-.5-.5-1-1-1.6-1.6s-1.1-1.2-1.6-1.7c-.6-.6-1.1-1.2-1.7-1.8-.5-.6-1.1-1.1-1.5-1.6-.5-.5-.9-.9-1.2-1.3s-.6-.6-.7-.8h-.2,0Z"/>
      <path d="M204,94.5c0-.8.1-1.6.5-2.4.3-.9.8-1.7,1.4-2.4.6-.7,1.4-1.3,2.4-1.8s2.1-.7,3.5-.7,2.1.2,3.1.5c.9.3,1.8.8,2.5,1.4s1.2,1.4,1.6,2.2.6,1.9.6,3-.2,2.1-.6,3c-.4.9-.9,1.8-1.6,2.5-.7.7-1.5,1.3-2.5,1.7-1,.4-2.1.6-3.2.6s-2.5-.2-3.5-.7c-1-.4-1.8-1-2.4-1.8s-1.1-1.5-1.4-2.4-.4-1.8-.4-2.6h0q0,0,0,0ZM206,94c0,1.1.2,2.1.5,3s.8,1.7,1.3,2.3c.6.6,1.2,1.1,2,1.4s1.6.5,2.5.5,1,0,1.6-.2,1.2-.5,1.7-.9c.6-.5,1-1.1,1.4-2s.6-1.9.6-3.3-.2-2.1-.5-3-.8-1.6-1.3-2.2-1.2-1-1.9-1.3-1.4-.4-2.2-.4-1.6,0-2.3.4-1.3.7-1.8,1.2-.9,1.2-1.2,1.9-.4,1.7-.4,2.7h0q0,0,0,0Z"/>
      <path d="M224.7,89.6l3.7,9.6c.2-.4.4-.9.7-1.6s.5-1.3.8-2,.6-1.4.9-2.1c.3-.7.6-1.4.8-2s.4-1.2.6-1.7c.2-.5.3-.8.4-1.1,0-.2,0-.3.1-.4v-.5s-.1,0-.2-.2h-.6c-.1,0-.2,0-.2-.2s.1-.2.4-.2h3.5c.2,0,.3,0,.3,0,0,0,0,.2-.2.2h-.4c-.2,0-.4,0-.6.2,0,0-.1,0-.2.2s-.1.2-.2.3-.2.3-.3.5-.2.5-.4.8c0,0-.2.4-.3.7-.1.3-.3.7-.5,1.2s-.4,1-.6,1.5-.5,1.1-.7,1.7c-.6,1.4-1.1,2.6-1.6,3.6s-.8,1.7-1,2.2c-.3.6-.4.9-.6,1.1s-.2.3-.3.3-.2,0-.3-.2c0-.2-.2-.5-.4-.9l-4.8-11.6c-.1-.3-.2-.5-.3-.7,0-.2-.2-.3-.3-.4-.1,0-.2-.2-.3-.2s-.3,0-.4-.2h-.9c0,0,.2-.2.5-.2h4.1c.4,0,.5,0,.5,0s0,.2-.2.2h-.7c-.1,0-.2,0-.2,0v.2c0,0,0,.3.2.6.1.3.2.6.4,1h-.2Z"/>
      <path d="M240.5,92.8v7.5c0,.3,0,.5.2.7,0,.2.3.3.6.3h.9c.1,0,.2,0,.2.2s-.1.2-.3.2h-4.4c-.1,0-.3,0-.3-.2s0-.2.2-.2h.6c.2,0,.3-.2.4-.3s.1-.4.1-.7v-11.7c0-.3,0-.6-.2-.7s-.2-.3-.4-.3h-.6c-.1,0-.2,0-.2-.2s.1-.2.3-.2h4c.2,0,.3,0,.3.2s0,.2-.2.2h-.5c-.3,0-.4.2-.5.3,0,.2-.1.4-.2.7v4.1h0q0,0,0,0Z"/>
      <path d="M253.7,101.9c-1.5,0-2.8-.2-3.8-.5s-1.9-.8-2.7-1.5c-.5-.4-.9-.9-1.2-1.3s-.6-.9-.7-1.4-.3-1-.4-1.5c0-.5-.1-1-.1-1.4s0-.7.1-1.1c0-.4.2-.9.4-1.3.2-.5.4-.9.7-1.4s.6-.9,1.1-1.3c.3-.3.6-.6,1-.8.4-.2.8-.5,1.3-.7s1-.3,1.6-.4c.6,0,1.3-.2,2-.2h1.4c.6,0,1,0,1.5.2.4,0,.7,0,1,.2s.6,0,1,0,.2,0,.2.2v2.9c0,.3,0,.4-.2.4s-.2,0-.2-.4,0-.7-.2-1.1c-.1-.3-.4-.6-.6-.8-.3-.3-.9-.6-1.5-.8s-1.5-.3-2.3-.3-1.2,0-1.6,0c-.5,0-.9.2-1.2.3-.4,0-.6.3-.9.4s-.5.3-.6.5c-.7.7-1.2,1.4-1.4,2.3s-.3,1.7-.3,2.7.2,1.8.5,2.6.8,1.6,1.4,2.2c.6.6,1.4,1.1,2.2,1.5s1.8.6,2.9.6,1.4,0,1.9-.2,1-.3,1.3-.7c.2-.2.4-.5.5-.8s.2-.6.2-.8v-.2h.2c.1,0,0,0,0,.2v.3c0,.2,0,.4-.1.7,0,.2-.1.5-.2.8s-.1.5-.2.6c0,.2-.1.3-.2.4,0,0-.2,0-.3.2-.4.2-.9.3-1.6.3h-2v.3q.1,0,.1,0Z"/>
    </g>
  </g>
</svg>