<svg preserveAspectRatio="xMidYMid meet" overflow="hidden" style="display: block;" viewBox="0 0 28.5001 17.4873" fill="none" xmlns="http://www.w3.org/2000/svg">
<g id="Maestro">
<path id="Left" d="M8.64355 0C13.4171 8.32468e-05 17.2871 3.91514 17.2871 8.74414C17.2869 13.573 13.417 17.4872 8.64355 17.4873C3.87002 17.4873 0.000174687 13.573 0 8.74414C0 3.91508 3.86991 0 8.64355 0Z" fill="var(--fill-0, #ED0006)"/>
<path id="Right" d="M19.8566 3.25521e-05C24.6301 0.00015584 28.5001 3.91519 28.5001 8.74417C28.5 13.573 24.63 17.4872 19.8566 17.4873C15.083 17.4873 11.2132 13.5731 11.213 8.74417C11.213 3.91512 15.0829 3.25521e-05 19.8566 3.25521e-05Z" fill="var(--fill-0, #0099DF)"/>
<path id="Middle" d="M14.2503 2.0916C16.1078 3.69536 17.2864 6.0799 17.2864 8.74395C17.2863 11.4078 16.1076 13.7916 14.2503 15.3953C12.3928 13.7916 11.2133 11.4079 11.2132 8.74395C11.2132 6.07977 12.3926 3.69536 14.2503 2.0916Z" fill="var(--fill-0, #6C6BBD)"/>
</g>
</svg>
