<svg preserveAspectRatio="xMidYMid meet" overflow="hidden" style="display: block;" viewBox="0 0 25.3332 22.0619" fill="none" xmlns="http://www.w3.org/2000/svg">
<g id="PayPal">
<path id="Vector" fill-rule="evenodd" clip-rule="evenodd" d="M3.04004 15.3114H1.0696C0.934755 15.3114 0.820076 15.4094 0.799049 15.5425L0.0020996 20.5953C-0.0137404 20.695 0.0634738 20.7849 0.164607 20.7849H1.10532C1.24016 20.7849 1.35484 20.6869 1.37586 20.5535L1.59081 19.1907C1.61154 19.0573 1.7265 18.9594 1.86106 18.9594H2.48484C3.78284 18.9594 4.53191 18.3313 4.72764 17.0866C4.81578 16.5421 4.73138 16.1142 4.47631 15.8145C4.19631 15.4855 3.69951 15.3114 3.04004 15.3114ZM3.26737 17.1569C3.15964 17.8639 2.6194 17.8639 2.09704 17.8639H1.79969L2.00829 16.5434C2.02068 16.4637 2.08982 16.4049 2.1705 16.4049H2.30679C2.66261 16.4049 2.99831 16.4049 3.17177 16.6077C3.27511 16.7287 3.30684 16.9085 3.26737 17.1569ZM8.93019 17.1342H7.98659C7.90619 17.1342 7.83672 17.193 7.82432 17.2729L7.78259 17.5367L7.71659 17.4411C7.51232 17.1446 7.05685 17.0455 6.60218 17.0455C5.55938 17.0455 4.66884 17.8353 4.49538 18.9431C4.40524 19.4957 4.53338 20.0241 4.84685 20.3926C5.13445 20.7314 5.54591 20.8726 6.03538 20.8726C6.87552 20.8726 7.34152 20.3323 7.34152 20.3323L7.29938 20.5946C7.28352 20.6949 7.36072 20.7847 7.46125 20.7847H8.31125C8.44645 20.7847 8.56045 20.6867 8.58179 20.5534L9.09179 17.3238C9.10792 17.2245 9.03099 17.1342 8.93019 17.1342ZM7.61485 18.9707C7.52378 19.5098 7.09592 19.8717 6.55032 19.8717C6.27631 19.8717 6.05725 19.7838 5.91671 19.6173C5.77725 19.4519 5.72418 19.2165 5.76858 18.9543C5.85365 18.4198 6.28872 18.0462 6.82605 18.0462C7.09392 18.0462 7.31178 18.1351 7.45525 18.3031C7.59899 18.4729 7.65605 18.7097 7.61485 18.9707ZM13.0074 17.1341H13.9557C14.0885 17.1341 14.1659 17.283 14.0905 17.3919L10.9367 21.9442C10.8857 22.0179 10.8015 22.0618 10.7117 22.0618H9.76459C9.63126 22.0618 9.55339 21.9117 9.63059 21.8025L10.6126 20.4163L9.56819 17.3513C9.53206 17.2447 9.61072 17.1341 9.72406 17.1341H10.6558C10.7769 17.1341 10.8837 17.2135 10.9186 17.3294L11.4729 19.1806L12.7807 17.2542C12.8319 17.179 12.917 17.1341 13.0074 17.1341Z" fill="var(--fill-0, #253B80)"/>
<path id="Vector_2" fill-rule="evenodd" clip-rule="evenodd" d="M23.2882 20.5949L24.0969 15.4497C24.1093 15.3698 24.1785 15.311 24.2589 15.3108H25.1693C25.2698 15.3108 25.347 15.4009 25.3311 15.5006L24.5337 20.5532C24.5129 20.6865 24.3982 20.7845 24.2631 20.7845H23.4501C23.3495 20.7845 23.2723 20.6947 23.2882 20.5949ZM17.095 15.311H15.1242C14.9896 15.311 14.875 15.409 14.8539 15.5421L14.057 20.5949C14.0411 20.6947 14.1183 20.7845 14.219 20.7845H15.2302C15.3242 20.7845 15.4046 20.716 15.4192 20.6227L15.6454 19.1904C15.6662 19.0569 15.7811 18.9591 15.9156 18.9591H16.5391C17.8374 18.9591 18.5863 18.3309 18.7822 17.0862C18.8706 16.5417 18.7857 16.1138 18.5307 15.8141C18.2508 15.4852 17.7544 15.311 17.095 15.311ZM17.3223 17.1565C17.2148 17.8636 16.6746 17.8636 16.1519 17.8636H15.8548L16.0638 16.543C16.0762 16.4633 16.1447 16.4045 16.2256 16.4045H16.3619C16.7175 16.4045 17.0535 16.4045 17.2268 16.6073C17.3303 16.7284 17.3618 16.9081 17.3223 17.1565ZM22.9846 17.1338H22.0417C21.9606 17.1338 21.8918 17.1926 21.8797 17.2725L21.8379 17.5364L21.7717 17.4408C21.5674 17.1442 21.1122 17.0452 20.6575 17.0452C19.6147 17.0452 18.7245 17.8349 18.551 18.9428C18.4611 19.4953 18.5887 20.0237 18.9022 20.3923C19.1903 20.7311 19.6013 20.8723 20.0907 20.8723C20.9309 20.8723 21.3967 20.332 21.3967 20.332L21.3547 20.5943C21.3389 20.6945 21.4161 20.7844 21.5173 20.7844H22.3669C22.5014 20.7844 22.6161 20.6864 22.6371 20.5531L23.1474 17.3234C23.163 17.2241 23.0858 17.1338 22.9846 17.1338ZM21.6694 18.9704C21.5789 19.5095 21.1505 19.8713 20.6047 19.8713C20.3313 19.8713 20.1118 19.7835 19.9711 19.6169C19.8317 19.4516 19.7793 19.2161 19.8231 18.954C19.9086 18.4194 20.3431 18.0458 20.8805 18.0458C21.1485 18.0458 21.3662 18.1348 21.5098 18.3028C21.6541 18.4725 21.7111 18.7093 21.6694 18.9704Z" fill="var(--fill-0, #179BD7)"/>
<path id="Vector_3" d="M10.3323 13.5034L10.5745 11.9647L10.0349 11.9521H7.45824L9.24892 0.597962C9.25438 0.563682 9.27251 0.531722 9.29891 0.509028C9.32531 0.486335 9.35918 0.473828 9.39438 0.473828H13.7391C15.1815 0.473828 16.1768 0.773976 16.6965 1.36639C16.9401 1.64431 17.0953 1.93472 17.1704 2.25433C17.2491 2.58969 17.2505 2.99034 17.1736 3.47901L17.168 3.51468V3.82778L17.4117 3.96582C17.6169 4.07466 17.7799 4.19926 17.9049 4.34193C18.1135 4.57954 18.2483 4.88155 18.3052 5.23959C18.364 5.60783 18.3445 6.046 18.2483 6.54208C18.1371 7.11274 17.9573 7.60974 17.7147 8.01642C17.4913 8.39114 17.2069 8.70187 16.8693 8.94281C16.5469 9.17161 16.1639 9.34534 15.7308 9.45654C15.3111 9.56574 14.8327 9.62094 14.3079 9.62094H13.9697C13.728 9.62094 13.4931 9.70801 13.3088 9.86414C13.124 10.0235 13.0016 10.2411 12.9641 10.4792L12.9387 10.6177L12.5107 13.3296L12.4912 13.4292C12.4861 13.4608 12.4773 13.4766 12.4644 13.4872C12.4528 13.4968 12.4361 13.5034 12.4199 13.5034H10.3323Z" fill="var(--fill-0, #253B80)"/>
<path id="Vector_4" d="M17.6422 3.55176C17.6293 3.63466 17.6145 3.71942 17.5978 3.80651C17.0248 6.74823 15.0646 7.76447 12.561 7.76447H11.2864C10.9802 7.76447 10.7222 7.9868 10.6745 8.2888L10.0218 12.4279L9.83703 13.6011C9.80596 13.7994 9.9589 13.9782 10.1589 13.9782H12.4198C12.6876 13.9782 12.9149 13.7836 12.957 13.5196L12.9793 13.4047L13.405 10.7034L13.4324 10.5552C13.474 10.2903 13.7018 10.0958 13.9696 10.0958H14.3077C16.4981 10.0958 18.2129 9.20644 18.7141 6.6329C18.9235 5.55783 18.8151 4.66017 18.2611 4.02884C18.0934 3.83847 17.8854 3.68052 17.6422 3.55176Z" fill="var(--fill-0, #179BD7)"/>
<path id="Vector_5" d="M17.0432 3.3121C16.9558 3.28662 16.8654 3.26346 16.7727 3.24262C16.6796 3.22225 16.5842 3.20418 16.486 3.18843C16.1423 3.13285 15.7658 3.10645 15.3623 3.10645H11.9569C11.8731 3.10645 11.7935 3.12543 11.7221 3.15971C11.5651 3.23521 11.4484 3.3839 11.4201 3.56593L10.6956 8.1543L10.6748 8.28815C10.7225 7.98615 10.9805 7.76382 11.2867 7.76382H12.5613C15.0649 7.76382 17.0252 6.74712 17.5982 3.80586C17.6152 3.71878 17.6296 3.63402 17.6426 3.55111C17.4976 3.47422 17.3406 3.40845 17.1715 3.35239C17.1299 3.3385 17.0868 3.32507 17.0432 3.3121Z" fill="var(--fill-0, #222D65)"/>
<path id="Vector_6" d="M11.4198 3.56617C11.448 3.38413 11.5648 3.23545 11.7218 3.16041C11.7936 3.12613 11.8728 3.10714 11.9566 3.10714H15.362C15.7655 3.10714 16.142 3.13354 16.4856 3.18913C16.5839 3.20487 16.6794 3.22294 16.7724 3.24331C16.8651 3.26417 16.9554 3.28733 17.043 3.31279C17.0864 3.32577 17.1295 3.33919 17.1716 3.35263C17.3407 3.40867 17.4978 3.47491 17.6427 3.55134C17.8132 2.46423 17.6414 1.72406 17.0536 1.05381C16.4056 0.315959 15.236 6.51042e-05 13.7395 6.51042e-05H9.39468C9.08895 6.51042e-05 8.82828 0.222386 8.78095 0.524853L6.97134 11.9958C6.93561 12.2227 7.11068 12.4275 7.33948 12.4275H10.0219L10.6954 8.15452L11.4198 3.56617Z" fill="var(--fill-0, #253B80)"/>
</g>
</svg>
