<svg preserveAspectRatio="xMidYMid meet" overflow="hidden" style="display: block;" viewBox="0 0 44.3333 30.4" fill="none" xmlns="http://www.w3.org/2000/svg">
<g id="Payment Method/ApplePay">
<rect id="BASE" x="0.316667" y="0.316667" width="43.7" height="29.7667" rx="3.48333" fill="var(--fill-0, white)" stroke="var(--stroke-0, #D9D9D9)" stroke-width="0.633333"/>
<path id="ApplePay" fill-rule="evenodd" clip-rule="evenodd" d="M10.5713 11.3156C11.1667 11.3658 11.762 11.0143 12.1342 10.5685C12.5001 10.1102 12.742 9.49499 12.6799 8.86719C12.1528 8.8923 11.5016 9.21875 11.1295 9.67705C10.7883 10.0726 10.4969 10.7129 10.5713 11.3156ZM17.6542 19.4016V9.61419H21.2824C23.1553 9.61419 24.464 10.92 24.464 12.8285C24.464 14.737 23.1305 16.0554 21.2327 16.0554H19.1551V19.4016H17.6542ZM12.6739 11.4349C12.1494 11.4043 11.6708 11.5946 11.2842 11.7482C11.0355 11.8471 10.8248 11.9309 10.6645 11.9309C10.4847 11.9309 10.2653 11.8426 10.019 11.7436C9.69627 11.6138 9.32731 11.4655 8.94038 11.4726C8.05351 11.4851 7.22865 11.9936 6.77591 12.8035C5.84562 14.4232 6.53403 16.8214 7.43331 18.1398C7.87365 18.7927 8.40081 19.5084 9.09543 19.4833C9.40102 19.4716 9.62084 19.3772 9.84834 19.2795C10.1102 19.167 10.3823 19.0501 10.8072 19.0501C11.2173 19.0501 11.4774 19.1639 11.7272 19.2732C11.9647 19.3771 12.1927 19.4768 12.5313 19.4707C13.2507 19.4582 13.7035 18.8178 14.1438 18.1649C14.619 17.4642 14.8278 16.7803 14.8595 16.6765L14.8632 16.6645C14.8625 16.6637 14.8566 16.661 14.8462 16.6562C14.6874 16.5826 13.4732 16.0199 13.4616 14.5111C13.4499 13.2447 14.4246 12.6031 14.5781 12.5021C14.5874 12.4959 14.5937 12.4918 14.5965 12.4896C13.9763 11.5605 13.0088 11.46 12.6739 11.4349ZM27.2053 19.4768C28.148 19.4768 29.0224 18.9934 29.4194 18.2275H29.4504V19.4015H30.8396V14.5298C30.8396 13.1172 29.7233 12.2069 28.0053 12.2069C26.4114 12.2069 25.2331 13.1298 25.1896 14.3979H26.5417C26.6533 13.7952 27.2053 13.3997 27.9619 13.3997C28.8798 13.3997 29.3946 13.8329 29.3946 14.6302V15.1701L27.5216 15.2831C25.7788 15.3898 24.8361 16.1118 24.8361 17.3674C24.8361 18.6355 25.8098 19.4768 27.2053 19.4768ZM27.6084 18.3153C26.8084 18.3153 26.2998 17.9261 26.2998 17.3297C26.2998 16.7144 26.7898 16.3566 27.7262 16.3001L29.3946 16.1934V16.7458C29.3946 17.6624 28.6255 18.3153 27.6084 18.3153ZM35.4479 19.7841C34.8463 21.498 34.1579 22.063 32.6942 22.063C32.5826 22.063 32.2105 22.0505 32.1237 22.0254V20.8514C32.2167 20.8639 32.4462 20.8765 32.564 20.8765C33.2276 20.8765 33.5997 20.594 33.8292 19.8595L33.9656 19.4263L31.4229 12.3008H32.9919L34.7595 18.0828H34.7905L36.5581 12.3008H38.0837L35.4479 19.7841ZM19.1553 10.8955H20.8856C22.188 10.8955 22.9322 11.5986 22.9322 12.8354C22.9322 14.0722 22.188 14.7816 20.8794 14.7816H19.1553V10.8955Z" fill="var(--fill-0, black)"/>
</g>
</svg>
