<svg preserveAspectRatio="xMidYMid meet" overflow="hidden" style="display: block;" viewBox="0 0 44.3333 30.4" fill="none" xmlns="http://www.w3.org/2000/svg">
<g id="Payment Method/Klarna">
<rect id="BASE" x="0.316667" y="0.316667" width="43.7" height="29.7667" rx="3.48333" fill="var(--fill-0, #FEB4C7)" stroke="var(--stroke-0, #D9D9D9)" stroke-width="0.633333"/>
<path id="Klarna" d="M17.7871 13.7363C18.3853 13.7364 18.9399 13.9258 19.3994 14.248V13.8906H21.0264V19.4775H19.3994V19.1211C18.9399 19.4432 18.3853 19.6327 17.7871 19.6328C16.2033 19.6328 14.919 18.3128 14.9189 16.6846C14.9189 15.0563 16.2033 13.7363 17.7871 13.7363ZM34.9521 13.7363C35.5504 13.7364 36.1049 13.9258 36.5645 14.248V13.8906H38.1914V19.4785H36.5645V19.1211C36.1049 19.4432 35.5504 19.6327 34.9521 19.6328C33.3684 19.6328 32.084 18.3128 32.084 16.6846C32.084 15.0563 33.3684 13.7363 34.9521 13.7363ZM39.9189 17.4971C40.4828 17.4971 40.9403 17.9671 40.9404 18.5469C40.9404 19.1265 40.4829 19.5967 39.9189 19.5967C39.3553 19.5964 38.8984 19.1264 38.8984 18.5469C38.8985 17.9673 39.3553 17.4973 39.9189 17.4971ZM6.87109 11.4004V19.4814H5.06738V11.4004H6.87109ZM11.374 11.4004C11.374 13.1498 10.7109 14.7776 9.5293 15.9873L12.0225 19.4814H9.79492L7.08594 15.6836L7.78516 15.1455C8.94467 14.2525 9.60938 12.8875 9.60938 11.4004H11.374ZM14.251 19.4795H12.5479V11.4023H14.251V19.4795ZM23.5439 14.6191C23.8702 14.1827 24.478 13.8916 25.1387 13.8916V15.5176C25.1321 15.5175 25.1257 15.5166 25.1191 15.5166C24.4753 15.5167 23.5479 15.9901 23.5479 16.8701V19.4785H21.8779V13.8916H23.5439V14.6191ZM29.1934 13.7412C30.504 13.7414 31.5098 14.6257 31.5098 15.9258V19.4785H29.8838V16.5312C29.8838 15.7163 29.4729 15.2773 28.7578 15.2773C28.0906 15.2774 27.5361 15.6934 27.5361 16.543V19.4785H25.8965V13.8916H27.5166V14.5215C27.9279 13.9491 28.5434 13.7412 29.1934 13.7412ZM17.9209 15.2471C17.1067 15.2471 16.4463 15.8906 16.4463 16.6846C16.4463 17.4784 17.1067 18.1221 17.9209 18.1221C18.7351 18.1219 19.3955 17.4784 19.3955 16.6846C19.3955 15.8907 18.7351 15.2472 17.9209 15.2471ZM35.0859 15.2471C34.2716 15.2471 33.6113 15.8906 33.6113 16.6846C33.6113 17.4785 34.2716 18.1221 35.0859 18.1221C35.9001 18.1219 36.5596 17.4784 36.5596 16.6846C36.5596 15.8907 35.9001 15.2472 35.0859 15.2471Z" fill="var(--fill-0, #17120F)"/>
</g>
</svg>
