<svg preserveAspectRatio="xMidYMid meet" overflow="hidden" style="display: block;" viewBox="0 0 28.5 17.4873" fill="none" xmlns="http://www.w3.org/2000/svg">
<g id="Mastercard">
<path id="Left" d="M19.8564 0C24.63 6.10017e-05 28.5 3.91512 28.5 8.74414C28.4998 13.573 24.6299 17.4872 19.8564 17.4873C17.7164 17.4873 15.7595 16.6988 14.25 15.3955C12.7405 16.6988 10.7837 17.4873 8.64355 17.4873C3.87003 17.4873 0.000192076 13.573 0 8.74414C0 3.91508 3.86991 0 8.64355 0C10.7836 2.73477e-05 12.7405 0.788561 14.25 2.0918C15.7595 0.788604 17.7164 0 19.8564 0Z" fill="var(--fill-0, #ED0006)"/>
<path id="Right" d="M19.8564 0C24.63 6.10017e-05 28.5 3.91512 28.5 8.74414C28.4998 13.573 24.6299 17.4872 19.8564 17.4873C17.7164 17.4873 15.7595 16.6988 14.25 15.3955C16.1074 13.7918 17.287 11.4081 17.2871 8.74414C17.2871 6.08002 16.1076 3.69556 14.25 2.0918C15.7595 0.788604 17.7164 0 19.8564 0Z" fill="var(--fill-0, #F9A000)"/>
<path id="Middle" d="M14.2493 2.09157C16.1071 3.69533 17.2865 6.07966 17.2865 8.74391C17.2864 11.408 16.1069 13.7916 14.2493 15.3953C12.3922 13.7916 11.2133 11.4076 11.2132 8.74391C11.2132 6.08 12.392 3.69533 14.2493 2.09157Z" fill="var(--fill-0, #FF5E00)"/>
</g>
</svg>
