<svg preserveAspectRatio="xMidYMid meet" overflow="hidden" style="display: block;" viewBox="0 0 10.4781 10.8478" fill="none" xmlns="http://www.w3.org/2000/svg">
<g id="G">
<path id="Blue" d="M10.4781 5.54409C10.4781 5.17499 10.4484 4.8059 10.389 4.44434H5.34766V6.53086H8.23584C8.11705 7.20125 7.73097 7.80386 7.16669 8.18049V9.53635H8.88921C9.89896 8.59478 10.4781 7.20125 10.4781 5.54409Z" fill="var(--fill-0, #4285F4)"/>
<path id="Green" d="M5.34826 10.8478C6.78864 10.8478 8.00628 10.3657 8.88982 9.53715L7.1673 8.18129C6.6847 8.51272 6.06845 8.70104 5.34826 8.70104C3.95243 8.70104 2.77191 7.7444 2.34871 6.46387H0.574219V7.86492C1.48002 9.69534 3.32876 10.8478 5.34826 10.8478Z" fill="var(--fill-0, #34A853)"/>
<path id="Yellow" d="M2.34842 6.46379C2.12564 5.79339 2.12564 5.06273 2.34842 4.3848V2.99128H0.573645C-0.191215 4.52039 -0.191215 6.3282 0.573645 7.85731L2.34842 6.46379Z" fill="var(--fill-0, #FBBC04)"/>
<path id="Red" d="M5.34826 2.14711C6.113 2.13204 6.84804 2.42581 7.39746 2.96063L8.92694 1.40892C7.95431 0.489944 6.67727 -0.0147373 5.34826 0.000327825C3.32876 0.000327825 1.48002 1.16034 0.574219 2.99076L2.34871 4.39181C2.77191 3.10374 3.95243 2.14711 5.34826 2.14711Z" fill="var(--fill-0, #EA4335)"/>
</g>
</svg>
