<svg preserveAspectRatio="xMidYMid meet" overflow="hidden" style="display: block;" viewBox="0 0 44.3333 30.4" fill="none" xmlns="http://www.w3.org/2000/svg">
<g id="Payment Method/Visa">
<rect id="BASE" x="0.316667" y="0.316667" width="43.7" height="29.7667" rx="3.48333" fill="var(--fill-0, white)" stroke="var(--stroke-0, #D9D9D9)" stroke-width="0.633333"/>
<path id="visa-logo" fill-rule="evenodd" clip-rule="evenodd" d="M13.4589 20.5948H10.7731L8.75914 12.9114C8.66354 12.558 8.46058 12.2455 8.16201 12.0982C7.41692 11.7281 6.59588 11.4336 5.7002 11.2851V10.9893H10.0267C10.6238 10.9893 11.0717 11.4336 11.1463 11.9497L12.1913 17.492L14.8757 10.9893H17.4868L13.4589 20.5948ZM18.9798 20.5948H16.4434L18.532 10.9893H21.0684L18.9798 20.5948ZM24.3497 13.6501C24.4244 13.1328 24.8722 12.837 25.3947 12.837C26.2157 12.7627 27.1101 12.9113 27.8565 13.2801L28.3043 11.2119C27.5579 10.9161 26.7369 10.7676 25.9918 10.7676C23.53 10.7676 21.7386 12.0981 21.7386 13.9447C21.7386 15.3495 23.0075 16.0871 23.9032 16.5314C24.8722 16.9745 25.2454 17.2703 25.1708 17.7134C25.1708 18.378 24.4244 18.6738 23.6793 18.6738C22.7836 18.6738 21.8879 18.4523 21.0682 18.0822L20.6203 20.1516C21.516 20.5204 22.485 20.669 23.3807 20.669C26.1411 20.742 27.8565 19.4127 27.8565 17.4176C27.8565 14.9051 24.3497 14.7578 24.3497 13.6501V13.6501ZM36.7338 20.5948L34.7198 10.9893H32.5566C32.1087 10.9893 31.6609 11.2851 31.5116 11.7281L27.7822 20.5948H30.3933L30.9145 19.1913H34.1227L34.4213 20.5948H36.7338ZM32.9295 13.5761L33.6746 17.1963H31.586L32.9295 13.5761Z" fill="var(--fill-0, #172B85)"/>
</g>
</svg>
