<svg preserveAspectRatio="xMidYMid meet" overflow="hidden" style="display: block;" viewBox="0 0 18.2578 12.2858" fill="none" xmlns="http://www.w3.org/2000/svg">
<g id="Pay">
<path id="Union" d="M15.0869 7.6236H15.1094L16.958 2.98297H18.2578L14.2627 12.2857H13.0303L14.5156 9.0318L11.8945 2.98297H13.1934L15.0869 7.6236ZM8.83496 2.77204C9.71843 2.77204 10.4164 3.01338 10.9287 3.48786C11.441 3.9624 11.6933 4.6254 11.6934 5.46149V9.44586H10.5498V8.55036H10.498C10.0007 9.28823 9.34732 9.65673 8.52344 9.6568C7.82552 9.6568 7.23142 9.44581 6.76367 9.02399C6.30352 8.63237 6.04384 8.05288 6.05859 7.44293C6.05859 6.77254 6.31114 6.2445 6.80859 5.84528C7.30599 5.44632 7.97438 5.25055 8.80566 5.25055C9.51827 5.25059 10.0974 5.38609 10.5576 5.64215V5.36383C10.5576 4.94955 10.3792 4.55786 10.0674 4.28668C9.74819 4.00051 9.3401 3.84242 8.91699 3.84235C8.24877 3.84235 7.72104 4.12827 7.33496 4.70075L6.28125 4.03083C6.84551 3.19473 7.69903 2.77205 8.83496 2.77204ZM3.16992 0.000551618C3.93466 -0.0145135 4.67773 0.279496 5.21973 0.821841C6.30344 1.84625 6.37048 3.57108 5.35352 4.67829L5.21973 4.81403C4.66288 5.34884 3.97921 5.61969 3.16992 5.61969H1.19531V9.44586H0V0.000551618H3.16992ZM8.99121 6.23004C8.50866 6.23006 8.10012 6.35015 7.77344 6.58356C7.45413 6.81707 7.29102 7.11136 7.29102 7.4654C7.29105 7.78172 7.43955 8.07565 7.68457 8.25641C7.95178 8.46714 8.27834 8.58028 8.6123 8.57282C9.11726 8.57282 9.60059 8.36895 9.95703 8.00739C10.3504 7.63083 10.5508 7.18645 10.5508 6.67438C10.1795 6.37308 9.65953 6.22251 8.99121 6.23004ZM1.19531 4.45954H3.2002C3.64557 4.4746 4.07642 4.29394 4.38086 3.97028C5.00463 3.31495 4.9898 2.26024 4.34375 1.6275C4.0393 1.32623 3.63087 1.16071 3.2002 1.16071H1.19531V4.45954Z" fill="var(--fill-0, #3C4043)"/>
</g>
</svg>
