<svg preserveAspectRatio="xMidYMid meet" overflow="hidden" style="display: block;" viewBox="0 0 44.3333 30.4" fill="none" xmlns="http://www.w3.org/2000/svg">
<g id="Payment Method/Amex">
<rect id="BASE" x="0.316667" y="0.316667" width="43.7" height="29.7667" rx="3.48333" fill="var(--fill-0, #1F72CD)" stroke="var(--stroke-0, #D9D9D9)" stroke-width="0.633333"/>
<path id="AMEX" fill-rule="evenodd" clip-rule="evenodd" d="M7.94792 10.7667L3.8 19.9459H8.76564L9.38123 18.4823H10.7883L11.4039 19.9459H16.8697V18.8289L17.3568 19.9459H20.1841L20.6711 18.8052V19.9459H32.0384L33.4207 18.5203L34.7149 19.9459L40.5534 19.9577L36.3924 15.3819L40.5534 10.7667H34.8055L33.46 12.1659L32.2065 10.7667H19.8403L18.7784 13.1359L17.6916 10.7667H12.7363V11.8457L12.1851 10.7667H7.94792ZM24.9226 12.0704H31.4502L33.4467 14.227L35.5076 12.0704H37.5041L34.4706 15.3809L37.5041 18.6532H35.417L33.4205 16.4715L31.3492 18.6532H24.9226V12.0704ZM26.5344 14.6362V13.4338V13.4327H30.6074L32.3847 15.3556L30.5287 17.2891H26.5344V15.9764H30.0955V14.6362H26.5344ZM8.90901 12.0704H11.3295L14.0808 18.2948V12.0704H16.7324L18.8574 16.5333L20.8159 12.0704H23.4542V18.6571H21.8489L21.8358 13.4958L19.4953 18.6571H18.0593L15.7057 13.4958V18.6571H12.4032L11.7771 17.1804H8.39448L7.76967 18.6558H6.0002L8.90901 12.0704ZM8.97176 15.8149L10.0862 13.1844L11.1993 15.8149H8.97176Z" fill="var(--fill-0, white)"/>
</g>
</svg>
