<svg preserveAspectRatio="xMidYMid meet" overflow="hidden" style="display: block;" viewBox="0 0 44.3334 30.4" fill="none" xmlns="http://www.w3.org/2000/svg">
<g id="Payment Method/Stripe">
<rect id="BASE" x="0.316667" y="0.316667" width="43.7" height="29.7667" rx="3.48333" fill="var(--fill-0, white)" stroke="var(--stroke-0, #D9D9D9)" stroke-width="0.633333"/>
<path id="Stripe" d="M28.5033 11.3253C30.0734 11.3253 31.5539 12.7395 31.5628 15.3351C31.5628 18.1722 30.1004 19.4609 28.4945 19.461C27.7052 19.461 27.2296 19.1303 26.9066 18.8976L26.8968 21.4298L24.6546 21.9044V11.4688H26.6283L26.7445 12.0235C27.0585 11.7371 27.624 11.3253 28.5033 11.3253ZM9.36556 11.3243C10.1103 11.3243 10.8464 11.4411 11.5911 11.7364V13.839C10.9093 13.472 10.0474 13.2667 9.36556 13.2667C8.89027 13.2668 8.60286 13.4011 8.60286 13.7501C8.60342 14.7522 12.0216 14.2784 12.0306 16.9454C12.0304 18.5473 10.7473 19.4688 8.88118 19.4688C8.10964 19.4688 7.26629 19.3171 6.43197 18.9591V16.8292C7.18552 17.2408 8.13657 17.5449 8.88118 17.545C9.38351 17.545 9.74234 17.4106 9.74251 16.9991C9.74251 15.9341 6.33358 16.3275 6.33333 13.8575C6.33333 12.2734 7.54441 11.3245 9.36556 11.3243ZM14.6595 11.4767H16.3636V13.3829H14.6595V16.5606C14.6598 17.8845 16.076 17.473 16.3636 17.3565V19.1739C16.0675 19.3349 15.5295 19.4688 14.7943 19.4688C13.4664 19.4688 12.4701 18.4936 12.4701 17.169L12.4788 10.0001L14.6683 9.53428L14.6595 11.4767ZM35.3939 11.3253C37.5203 11.3253 38.6331 13.1336 38.6331 15.4249C38.6331 15.6397 38.6146 16.104 38.6146 16.2208H34.2279C34.3266 17.2769 35.0979 17.5811 35.9681 17.5812C36.8564 17.5812 37.5562 17.3933 38.1663 17.089V18.879C37.5562 19.2191 36.7487 19.461 35.681 19.461C33.4918 19.461 31.9671 18.1003 31.9671 15.4063C31.9672 13.1332 33.2587 11.3254 35.3939 11.3253ZM19.1546 12.1388C19.684 11.1722 20.7337 11.3693 21.0208 11.4767V13.5353C20.7427 13.4368 19.8451 13.311 19.3158 14.0001V19.3077H17.0736V11.4767H19.0111L19.1546 12.1388ZM23.8206 19.3077H21.5687V11.4767H23.8206V19.3077ZM27.9652 13.3126C27.4538 13.3126 27.1301 13.4915 26.8968 13.7511L26.9066 17.0714C27.1219 17.3041 27.4358 17.4923 27.9652 17.4923C28.7905 17.4921 29.347 16.5968 29.347 15.3976C29.3469 14.2254 28.7814 13.3128 27.9652 13.3126ZM35.3851 13.1427C34.82 13.1428 34.2017 13.5634 34.2015 14.5743H36.516C36.5158 13.5632 35.9323 13.1427 35.3851 13.1427ZM23.8206 10.3136L21.5677 10.797V8.9708L23.8206 8.49619V10.3136Z" fill="var(--fill-0, #6461FC)"/>
</g>
</svg>
