<svg preserveAspectRatio="none" width="100%" height="100%" overflow="visible" style="display: block;" viewBox="0 0 91 15" fill="none" xmlns="http://www.w3.org/2000/svg">
<g id="Frame" clip-path="url(#clip0_0_6)">
<path id="Star" d="M7.5 0L9.26336 5.07295L14.6329 5.18237L10.3532 8.42705L11.9084 13.5676L7.5 10.5L3.09161 13.5676L4.64683 8.42705L0.367076 5.18237L5.73664 5.07295L7.5 0Z" fill="var(--fill-0, #B089FF)"/>
<path id="Star_2" d="M26.5 0L28.2634 5.07295L33.6329 5.18237L29.3532 8.42705L30.9084 13.5676L26.5 10.5L22.0916 13.5676L23.6468 8.42705L19.3671 5.18237L24.7366 5.07295L26.5 0Z" fill="var(--fill-0, #B089FF)"/>
<path id="Star_3" d="M45.5 0L47.2634 5.07295L52.6329 5.18237L48.3532 8.42705L49.9084 13.5676L45.5 10.5L41.0916 13.5676L42.6468 8.42705L38.3671 5.18237L43.7366 5.07295L45.5 0Z" fill="var(--fill-0, #B089FF)"/>
<path id="Star_4" d="M64.5 0L66.2634 5.07295L71.6329 5.18237L67.3532 8.42705L68.9084 13.5676L64.5 10.5L60.0916 13.5676L61.6468 8.42705L57.3671 5.18237L62.7366 5.07295L64.5 0Z" fill="var(--fill-0, #B089FF)"/>
<path id="Star_5" d="M83.5 0L85.2634 5.07295L90.6329 5.18237L86.3532 8.42705L87.9084 13.5676L83.5 10.5L79.0916 13.5676L80.6468 8.42705L76.3671 5.18237L81.7366 5.07295L83.5 0Z" fill="var(--fill-0, #B089FF)"/>
</g>
<defs>
<clipPath id="clip0_0_6">
<rect width="91" height="15" fill="white"/>
</clipPath>
</defs>
</svg>
